<?xml version="1.0" standalone="no"?>
<!DOCTYPE svg PUBLIC "-//W3C//DTD SVG 20010904//EN"
 "http://www.w3.org/TR/2001/REC-SVG-20010904/DTD/svg10.dtd">
<svg version="1.0" xmlns="http://www.w3.org/2000/svg"
 width="180.000000pt" height="180.000000pt" viewBox="0 0 180.000000 180.000000"
 preserveAspectRatio="xMidYMid meet">
<metadata>
Created by potrace 1.14, written by Peter Selinger 2001-2017
</metadata>
<g transform="translate(0.000000,180.000000) scale(0.100000,-0.100000)"
fill="#000000" stroke="none">
<path d="M799 1781 c-26 -10 -57 -26 -70 -35 -23 -16 -131 -119 -197 -189
l-33 -34 180 1 c114 1 181 -3 182 -9 3 -26 -4 -90 -10 -109 -7 -19 -15 -20
-104 -17 l-97 2 -24 -54 c-13 -30 -30 -72 -37 -93 -8 -22 -17 -41 -20 -44 -11
-9 -21 -50 -12 -51 4 -1 49 -2 98 -3 122 -3 153 -25 150 -106 -2 -47 -16 -184
-20 -190 -1 -3 -6 -36 -9 -75 -4 -38 -8 -86 -11 -105 -8 -58 -14 -112 -21
-175 -3 -33 -9 -78 -13 -100 l-7 -40 -147 0 c-81 0 -147 -2 -147 -5 0 -4 69
-74 153 -157 174 -172 209 -192 327 -189 96 3 154 35 273 152 53 53 97 98 97
100 0 3 -50 14 -90 19 -17 2 -34 6 -39 9 -4 3 -23 8 -42 11 -64 11 -69 14 -64
43 2 15 5 45 6 67 3 54 4 55 42 44 17 -5 43 -11 57 -14 14 -3 58 -11 99 -19
76 -15 100 -13 102 8 0 6 2 20 5 31 7 35 43 318 49 383 3 34 2 62 -2 63 -4 1
-111 2 -238 3 -155 1 -237 6 -252 14 -43 24 -45 69 -8 207 13 49 26 101 29
115 2 14 9 39 15 55 11 30 13 31 79 30 61 -1 67 -3 64 -20 -4 -23 -49 -209
-58 -242 l-6 -23 134 0 134 0 32 153 c46 222 45 217 25 218 -10 0 -114 0 -231
0 l-213 0 5 60 c3 33 8 64 11 69 3 5 80 9 171 9 91 -1 168 1 170 3 10 11 -185
191 -233 214 -68 34 -169 40 -234 15z m508 -1031 c23 0 23 0 8 -90 -2 -14 -4
-28 -4 -32 -1 -5 -112 -8 -247 -8 l-246 0 7 53 c4 28 8 57 9 62 2 19 67 21
473 15z"/>
<path d="M211 1237 c-186 -186 -204 -216 -205 -337 0 -74 3 -91 28 -136 29
-54 285 -318 287 -296 1 6 2 15 3 20 1 4 6 36 10 72 4 36 10 79 12 95 2 17 6
55 10 85 3 30 7 59 8 64 0 5 -27 10 -62 11 -34 1 -65 5 -68 8 -3 3 5 22 19 44
38 61 142 270 180 363 20 47 42 101 51 121 l15 35 -68 2 -67 2 -153 -153z"/>
<path d="M1492 1258 c-6 -29 -14 -68 -17 -87 -3 -19 -8 -37 -10 -40 -2 -4 -6
-25 -10 -49 -6 -42 -4 -44 30 -42 3 1 19 -7 35 -16 49 -29 63 -84 48 -179 -8
-45 -31 -209 -44 -310 -2 -21 -3 -37 0 -35 225 211 271 278 271 401 0 106 -30
159 -169 299 -60 61 -112 110 -116 110 -4 0 -12 -24 -18 -52z"/>
<path d="M533 1012 c-18 -3 -23 -10 -24 -35 -1 -18 -1 -35 -1 -38 1 -3 -3 -35
-8 -70 -5 -35 -12 -95 -15 -134 -4 -38 -8 -81 -11 -95 -2 -14 -6 -54 -10 -90
l-6 -65 69 1 c37 1 71 2 74 3 7 1 14 41 24 134 26 242 34 311 41 355 3 19 1
33 -5 33 -27 3 -108 4 -128 1z"/>
</g>
</svg>
